<?xml version="1.0" encoding="UTF-8"?>
<!DOCTYPE svg PUBLIC "-//W3C//DTD SVG 1.1//EN" "http://www.w3.org/Graphics/SVG/1.1/DTD/svg11.dtd">
<!-- Creator: CorelDRAW X7 -->
<svg xmlns="http://www.w3.org/2000/svg" xml:space="preserve" width="6.08865in" height="6.16096in" version="1.1" shape-rendering="geometricPrecision" text-rendering="geometricPrecision" image-rendering="optimizeQuality" fill-rule="evenodd" clip-rule="evenodd"
viewBox="0 0 6089 6161"
 xmlns:xlink="http://www.w3.org/1999/xlink">
 <defs>
     <linearGradient id="id0" gradientUnits="userSpaceOnUse" x1="4493.46" y1="3105.87" x2="1661.1" y2="1130.24">
      <stop offset="0" stop-opacity="1" stop-color="#A660CA"/>
      <stop offset="1" stop-opacity="1" stop-color="#7B4BBF"/>
     </linearGradient>
     <linearGradient id="id1" gradientUnits="userSpaceOnUse" x1="4327.8" y1="1138.22" x2="2924.09" y2="-76.8583">
      <stop offset="0" stop-opacity="1" stop-color="#F7A551"/>
      <stop offset="1" stop-opacity="1" stop-color="#F78166"/>
     </linearGradient>
     <linearGradient id="id2" gradientUnits="userSpaceOnUse" x1="2103.7" y1="381.646" x2="4686.92" y2="2367.57">
      <stop offset="0" stop-opacity="1" stop-color="#F66069"/>
      <stop offset="1" stop-opacity="1" stop-color="#F4A052"/>
     </linearGradient>
     <linearGradient id="id3" gradientUnits="userSpaceOnUse" x1="4232.25" y1="2376.66" x2="2078.79" y2="1435.84">
      <stop offset="0" stop-opacity="1" stop-color="#F7825F"/>
      <stop offset="1" stop-opacity="1" stop-color="#F23C75"/>
     </linearGradient>
     <linearGradient id="id4" gradientUnits="userSpaceOnUse" x1="2535.91" y1="2131.77" x2="4607.22" y2="3818.82">
      <stop offset="0" stop-opacity="1" stop-color="#9864C8"/>
      <stop offset="1" stop-opacity="1" stop-color="#FD4CA7"/>
     </linearGradient>
 </defs>
 <g id="Layer_x0020_1">
  <metadata id="CorelCorpID_0Corel-Layer"/>
  <g id="_2216667655472">
   <g>
    <path fill="url(#id0)" d="M3136 4236c449,0 865,-140 1208,-378 -13,13 -26,25 -38,37 23,-11 48,-22 73,-22 49,0 160,39 214,54 344,97 1002,177 1273,-64 69,-62 120,-111 120,-218 0,-45 -10,-92 -20,-127 -2,-6 -3,-8 -5,-13 -53,-155 -251,-413 -385,-478 -32,-16 -129,-83 -129,-23 0,21 25,51 36,68 8,12 13,21 20,32 8,12 14,22 22,33 71,107 215,301 215,448 0,41 -31,54 -66,61 -113,25 -280,6 -386,-9 -79,-11 -147,-29 -225,-43 -177,-32 -6222,-2557 -4172,-2820 27,-4 45,-8 45,-34 0,-93 -684,-149 -767,221 4,496 404,731 704,1021l23 19c28,29 58,60 89,85 13,10 24,18 33,28l0 4c0,1170 948,2118 2118,2118zm1886 -1154c149,-289 232,-617 232,-964 0,-1170 -948,-2118 -2118,-2118 -960,0 -1771,639 -2031,1516l0 0c5,4 11,8 17,12 2,1 3,2 5,3 6,4 12,8 18,12 3,2 5,4 8,5 6,4 13,9 20,13 3,2 6,4 9,6 8,4 15,8 23,13l11 6c8,5 16,10 24,14l12 7c9,5 18,10 27,15 4,3 9,5 13,7 9,5 19,11 29,16 4,3 9,5 13,7 11,6 22,12 33,18 4,2 8,4 12,6 12,6 24,12 36,19l9 4c61,32 128,65 201,101l7 3c15,8 31,16 47,23l15 7c14,7 29,14 44,22l21 9c15,8 30,15 45,22l19 9c16,8 32,15 48,23l21 9c16,8 32,15 48,23l21 9c17,8 35,16 52,24l17 8c18,8 37,17 56,26l15 6c19,9 39,18 59,27l11 5c118,54 242,108 369,163l2 1c23,10 46,20 69,30l12 5c23,10 45,19 67,29l15 6c21,9 43,19 65,28l17 7c22,9 44,19 65,28l16 6c22,10 45,19 67,29l14 5c23,10 46,19 69,29l12 5c23,10 47,19 71,29l6 3c188,77 374,151 554,220l1 0c24,10 48,19 72,28l9 3c22,9 45,17 68,26l9 3c23,9 46,17 69,26l5 2c24,8 47,17 70,25l3 2c220,79 421,148 592,198l3 0c17,6 35,11 52,16l5 1c16,5 33,9 49,13l5 2c16,4 31,8 47,12l4 1c15,4 30,7 45,11l2 0c109,26 195,38 251,35l0 0z"/>
    <path fill="url(#id1)" d="M2961 566c746,237 1292,161 2011,495 -366,-634 -1051,-1061 -1836,-1061 -305,0 -594,64 -856,180 107,108 372,315 681,386z"/>
    <path fill="url(#id2)" d="M4972 1061c-719,-334 -1265,-258 -2011,-495 -309,-71 -574,-278 -681,-386 -287,127 -540,316 -743,550 888,1241 2628,564 3669,1839 32,-145 48,-296 48,-451 0,-385 -103,-746 -282,-1057z"/>
    <path fill="url(#id3)" d="M5206 2569c-1041,-1275 -2781,-598 -3669,-1839 -196,225 -345,492 -432,786 5,4 11,8 17,12l5 3c6,4 12,8 18,12l8 5 20 13 9 6 23 13 11 6 24 14 12 7 27 15 13 7 29 16 13 7 33 18 12 6 36 19 9 4c61,32 128,65 201,101l7 3 47 23 15 7 44 22 21 9 45 22 19 9 48 23 21 9 48 23 21 9 52 24 17 8 56 26 15 6 59 27 11 5c118,54 242,108 369,163l2 1 69 30 12 5 67 29 15 6 65 28 17 7 65 28 16 6 67 29 14 5 69 29 12 5 71 29 6 3c188,77 374,151 554,220l1 0 72 28 9 3 68 26 9 3 69 26 5 2 70 25 3 2c220,79 421,148 592,198l3 0c17,6 35,11 52,16l5 1 49 13 5 2c16,4 31,8 47,12l4 1c15,4 30,7 45,11l2 0c109,26 195,38 251,35l0 0c83,-160 145,-332 184,-513z"/>
    <path fill="url(#id4)" d="M1177 1848c0,14 110,877 110,877 396,342 1049,555 1762,739 372,79 591,380 795,638 204,-27 388,-183 521,-247 1144,416 2298,-59 1084,-855 1718,1978 -4029,-990 -4272,-1152z"/>
    <polygon fill="#FEFEFE" points="2111,885 2132,949 2199,948 2144,988 2165,1051 2111,1012 2057,1051 2078,988 2023,948 2091,949 "/>
    <polygon fill="#FEFEFE" points="2213,1681 2230,1734 2285,1734 2240,1766 2258,1819 2213,1786 2168,1819 2185,1766 2141,1734 2196,1734 "/>
    <polygon fill="#FEFEFE" points="3082,1767 3096,1811 3142,1811 3105,1837 3119,1881 3082,1854 3046,1881 3060,1837 3023,1811 3068,1811 "/>
    <polygon fill="#FEFEFE" points="2851,3104 2861,3136 2895,3136 2868,3156 2878,3189 2851,3169 2823,3189 2834,3156 2806,3136 2840,3136 "/>
    <polygon fill="#FEFEFE" points="2113,3330 2127,3374 2172,3374 2135,3401 2150,3444 2113,3417 2076,3444 2090,3401 2053,3374 2099,3374 "/>
    <polygon fill="#FEFEFE" points="3260,3797 3268,3821 3294,3821 3273,3836 3281,3860 3260,3845 3240,3860 3248,3836 3227,3821 3252,3821 "/>
   </g>
   <path fill="#FEFEFE" d="M214 5502c134,0 213,-76 213,-211l0 -252 -126 0 0 248c0,78 -33,109 -86,109 -54,0 -86,-31 -86,-109l0 -248 -129 0 0 252c0,135 79,211 214,211zm524 -367c-44,0 -84,15 -112,45l0 -39 -118 0 0 352 124 0 0 -170c0,-58 30,-83 70,-83 36,0 58,21 58,72l0 181 123 0 0 -201c0,-109 -63,-157 -145,-157zm284 -33c46,0 75,-28 75,-67 0,-37 -29,-64 -75,-64 -45,0 -75,29 -75,66 0,37 30,65 75,65zm-62 391l124 0 0 -352 -124 0 0 352zm457 -352l-89 215 -84 -215 -127 0 145 352 127 0 146 -352 -118 0zm499 177c0,-116 -84,-183 -188,-183 -111,0 -193,76 -193,182 0,105 81,182 206,182 67,0 116,-19 150,-57l-65 -68c-24,21 -47,31 -81,31 -46,0 -76,-21 -86,-57l255 0c1,-9 2,-21 2,-30zm-187 -95c38,0 65,23 72,60l-144 0c7,-37 33,-60 72,-60zm362 -40l0 -42 -117 0 0 352 123 0 0 -162c0,-61 34,-87 84,-87 9,0 17,1 28,2l0 -111c-52,0 -93,17 -118,48zm297 316c115,0 175,-51 175,-116 0,-139 -208,-87 -208,-135 0,-13 15,-25 57,-25 31,0 66,6 101,26l37 -84c-35,-19 -89,-30 -139,-30 -110,0 -171,51 -171,117 0,141 208,87 208,135 0,15 -14,24 -56,24 -42,0 -90,-13 -122,-33l-37 85c34,21 96,36 155,36zm378 -364c-55,0 -115,15 -155,41l41 84c24,-19 62,-30 96,-30 48,0 72,20 74,55l-70 0c-109,0 -156,41 -156,106 0,61 46,108 131,108 51,0 86,-17 104,-51l0 45 115 0 0 -195c0,-112 -66,-163 -180,-163zm-5 286c-29,0 -46,-15 -46,-36 0,-21 14,-35 54,-35l53 0 0 30c-9,28 -34,41 -61,41zm263 72l123 0 0 -482 -123 0 0 482z"/>
   <path fill="#FEFEFE" d="M3969 5537c81,0 150,-29 195,-82l-59 -56c-35,39 -80,58 -131,58 -102,0 -175,-71 -175,-172 0,-101 73,-173 175,-173 51,0 96,19 131,58l59 -56c-45,-53 -114,-82 -194,-82 -151,0 -263,106 -263,253 0,146 112,252 262,252zm358 -327l0 -54 -83 0 0 374 87 0 0 -181c0,-77 42,-116 109,-116 6,0 13,0 20,2l0 -84c-62,0 -108,20 -133,59zm488 -54l-118 277 -118 -277 -91 0 163 376 -6 14c-17,38 -35,52 -66,52 -24,0 -48,-10 -65,-26l-35 65c24,22 63,34 101,34 62,0 110,-26 144,-111l176 -404 -85 0zm347 -5c-51,0 -95,18 -124,54l0 -49 -84 0 0 510 88 0 0 -181c30,34 72,50 120,50 109,0 190,-76 190,-192 0,-116 -81,-192 -190,-192zm-10 309c-63,0 -111,-46 -111,-117 0,-72 48,-117 111,-117 63,0 111,45 111,117 0,71 -48,117 -111,117zm484 -13c-13,11 -31,16 -49,16 -34,0 -52,-20 -52,-56l0 -178 100 0 0 -71 -100 0 0 -85 -88 0 0 85 -61 0 0 71 61 0 0 180c0,83 47,126 130,126 31,0 63,-8 84,-25l-25 -63zm253 88c116,0 200,-80 200,-192 0,-112 -84,-192 -200,-192 -115,0 -200,80 -200,192 0,112 85,192 200,192zm0 -75c-63,0 -111,-46 -111,-117 0,-72 48,-117 111,-117 64,0 111,45 111,117 0,71 -47,117 -111,117z"/>
   <path fill="#FEFEFE" d="M1270 5957l-83 0 0 201 38 0 0 -58 45 0c53,0 86,-27 86,-72 0,-44 -33,-71 -86,-71zm-1 111l-44 0 0 -79 44 0c32,0 49,14 49,39 0,26 -17,40 -49,40zm154 -41l0 -22 -35 0 0 153 36 0 0 -74c0,-32 18,-48 45,-48 2,0 5,1 8,1l0 -34c-25,0 -44,8 -54,24zm152 133c48,0 82,-33 82,-79 0,-46 -34,-78 -82,-78 -47,0 -81,32 -81,78 0,46 34,79 81,79zm0 -31c-26,0 -45,-18 -45,-48 0,-29 19,-48 45,-48 26,0 46,19 46,48 0,30 -20,48 -46,48zm221 -124l-49 113 -47 -113 -38 0 66 153 37 0 66 -153 -35 0zm75 -26c14,0 23,-9 23,-22 0,-12 -9,-21 -23,-21 -13,0 -23,10 -23,22 0,12 10,21 23,21zm-18 179l36 0 0 -153 -36 0 0 153zm198 -213l0 79c-12,-14 -30,-21 -50,-21 -44,0 -77,31 -77,78 0,48 33,79 77,79 21,0 39,-7 51,-22l0 20 35 0 0 -213 -36 0zm-45 184c-26,0 -46,-18 -46,-48 0,-29 20,-48 46,-48 26,0 45,19 45,48 0,30 -19,48 -45,48zm272 -47c0,-48 -33,-79 -77,-79 -46,0 -80,33 -80,78 0,46 34,79 85,79 26,0 48,-9 62,-25l-19 -22c-11,11 -25,17 -42,17 -27,0 -46,-15 -50,-37l121 0c0,-4 0,-8 0,-11zm-77 -50c23,0 40,15 43,37l-87 0c3,-22 20,-37 44,-37zm332 86c-13,7 -27,10 -42,10 -42,0 -72,-30 -72,-70 0,-42 30,-71 73,-71 21,0 39,7 55,23l24 -23c-19,-22 -47,-33 -81,-33 -63,0 -109,43 -109,104 0,60 46,103 108,103 29,0 58,-9 79,-26l0 -80 -35 0 0 63zm81 40l36 0 0 -213 -36 0 0 213zm152 2c48,0 82,-33 82,-79 0,-46 -34,-78 -82,-78 -47,0 -82,32 -82,78 0,46 35,79 82,79zm0 -31c-26,0 -46,-18 -46,-48 0,-29 20,-48 46,-48 26,0 46,19 46,48 0,30 -20,48 -46,48zm201 -126c-19,0 -36,7 -49,20l0 -78 -36 0 0 213 34 0 0 -20c13,15 30,22 51,22 45,0 78,-31 78,-79 0,-47 -33,-78 -78,-78zm-4 126c-26,0 -45,-18 -45,-48 0,-29 19,-48 45,-48 26,0 46,19 46,48 0,30 -20,48 -46,48zm173 -126c-25,0 -49,6 -65,19l14 26c12,-9 30,-15 47,-15 25,0 38,12 38,33l0 2 -40 0c-46,0 -63,21 -63,46 0,27 22,46 57,46 23,0 39,-7 48,-21l0 19 34 0 0 -90c0,-44 -26,-65 -70,-65zm-5 131c-18,0 -29,-8 -29,-21 0,-12 6,-21 31,-21l37 0 0 18c-6,16 -21,24 -39,24zm121 24l36 0 0 -213 -36 0 0 213zm259 3c33,0 61,-12 80,-34l-24 -23c-15,16 -33,24 -54,24 -42,0 -72,-29 -72,-70 0,-42 30,-71 72,-71 21,0 39,8 54,23l24 -22c-19,-22 -47,-34 -80,-34 -62,0 -108,43 -108,104 0,60 46,103 108,103zm175 -1c48,0 82,-33 82,-79 0,-46 -34,-78 -82,-78 -47,0 -81,32 -81,78 0,46 34,79 81,79zm0 -31c-25,0 -45,-18 -45,-48 0,-29 20,-48 45,-48 27,0 46,19 46,48 0,30 -19,48 -46,48zm204 -126c-22,0 -41,7 -53,21l0 -19 -34 0 0 153 36 0 0 -78c0,-30 17,-46 43,-46 23,0 36,13 36,41l0 83 36 0 0 -88c0,-46 -27,-67 -64,-67zm197 0c-23,0 -41,7 -53,21l0 -19 -34 0 0 153 36 0 0 -78c0,-30 17,-46 42,-46 23,0 37,13 37,41l0 83 36 0 0 -88c0,-46 -27,-67 -64,-67zm255 79c0,-48 -32,-79 -77,-79 -46,0 -80,33 -80,78 0,46 34,79 85,79 27,0 48,-9 62,-25l-19 -22c-11,11 -25,17 -42,17 -27,0 -45,-15 -50,-37l121 0c0,-4 0,-8 0,-11zm-77 -50c23,0 40,15 43,37l-87 0c3,-22 20,-37 44,-37zm182 128c30,0 54,-13 66,-36l-28 -16c-9,15 -23,21 -38,21 -27,0 -47,-18 -47,-48 0,-29 20,-48 47,-48 15,0 29,7 38,22l28 -16c-12,-24 -36,-36 -66,-36 -48,0 -83,32 -83,78 0,46 35,79 83,79zm181 -36c-5,4 -13,7 -20,7 -14,0 -21,-9 -21,-23l0 -73 41 0 0 -29 -41 0 0 -35 -36 0 0 35 -26 0 0 29 26 0 0 73c0,34 19,52 53,52 13,0 25,-3 34,-10l-10 -26zm58 -145c13,0 23,-9 23,-22 0,-12 -10,-21 -23,-21 -13,0 -23,10 -23,22 0,12 10,21 23,21zm-18 179l36 0 0 -153 -36 0 0 153zm152 2c47,0 82,-33 82,-79 0,-46 -35,-78 -82,-78 -47,0 -82,32 -82,78 0,46 35,79 82,79zm0 -31c-26,0 -46,-18 -46,-48 0,-29 20,-48 46,-48 26,0 45,19 45,48 0,30 -19,48 -45,48zm203 -126c-22,0 -41,7 -53,21l0 -19 -34 0 0 153 36 0 0 -78c0,-30 17,-46 43,-46 23,0 36,13 36,41l0 83 36 0 0 -88c0,-46 -27,-67 -64,-67z"/>
  </g>
 </g>
</svg>
